<svg xmlns="http://www.w3.org/2000/svg" xmlns:xlink="http://www.w3.org/1999/xlink" xmlns:xodm="http://www.corel.com/coreldraw/odm/2003" id="Layer_1" x="0" y="0" version="1.1" viewBox="0 0 122.9 122.9" style="enable-background:new 0 0 122.9 122.9" xml:space="preserve"><style type="text/css">.st0{fill:none}.st1{fill:#32bdfa}.st2{fill:#fff}</style><metadata id="CorelCorpID_0Corel-Layer"><sfw xmlns="http://ns.adobe.com/SaveForWeb/1.0/"><slices/><sliceSourceBounds width="122.9" height="122.9" x="0" y="0" bottomLeftOrigin="true"/></sfw></metadata><g id="Layer_x0020_1"><rect width="122.9" height="122.9" x="0" y="0" class="st0"/><g id="_2888529216576"><path d="M23.6,2.9h84.8v108.2c-0.1,5.1-4,8.8-8.9,9H14.6V11.7C14.8,6.9,18.4,3.1,23.6,2.9z" class="st1"/><g><g><path d="M57.8,65.1V45.6c-10.8,0-19.5,8.7-19.5,19.5c0,10.8,8.7,19.5,19.5,19.5s19.5-8.7,19.5-19.5 C77.3,65.1,57.8,65.1,57.8,65.1z" class="st2"/><path d="M85.1,57.3H65.6V37.8C76.4,37.8,85.1,46.5,85.1,57.3z" class="st2"/></g></g></g></g></svg>