<svg xmlns="http://www.w3.org/2000/svg" xmlns:xlink="http://www.w3.org/1999/xlink" id="Layer_2_1_" x="0" y="0" version="1.1" viewBox="0 0 122.9 122.9" style="enable-background:new 0 0 122.9 122.9" xml:space="preserve"><style type="text/css">.st0{fill:none}.st1{fill:#00ceb3}.st2{fill:#003458}.st3{fill:url(#SVGID_1_);fill-opacity:.3}.st4{fill:#0382f3}.st5{fill:url(#SVGID_2_);fill-opacity:.2}.st6{fill:url(#SVGID_3_);fill-opacity:.3}.st7{fill:url(#SVGID_4_);fill-opacity:.2}.st8{fill-rule:evenodd;clip-rule:evenodd}.st8,.st9{fill:#fff}</style><metadata id="CorelCorpID_0Corel-Layer"><sfw xmlns="http://ns.adobe.com/SaveForWeb/1.0/"><slices/><sliceSourceBounds width="122.9" height="122.9" x="0" y="0" bottomLeftOrigin="true"/></sfw></metadata><rect width="122.9" height="122.9" y="0" class="st0"/><g id="Layer_3_3_"><path d="M109.6,58.7c0,7.4-6,13.4-13.4,13.4s-13.4-6-13.4-13.4s6-13.4,13.4-13.4S109.6,51.4,109.6,58.7z" class="st1"/><path d="M109.6,58.7c0,7.4-6,13.4-13.4,13.4s-13.4-6-13.4-13.4s6-13.4,13.4-13.4S109.6,51.4,109.6,58.7z" class="st2"/><linearGradient id="SVGID_1_" x1="82.75" x2="109.55" y1="65.19" y2="65.19" gradientTransform="matrix(1 0 0 -1 0 123.8898)" gradientUnits="userSpaceOnUse"><stop offset="0" style="stop-color:#fff"/><stop offset="1" style="stop-color:#fff;stop-opacity:0"/></linearGradient><path d="M109.6,58.7c0,7.4-6,13.4-13.4,13.4s-13.4-6-13.4-13.4s6-13.4,13.4-13.4S109.6,51.4,109.6,58.7z" class="st3"/><path d="M69.5,37.4c0,14.8-12,26.7-26.7,26.7s-26.7-12-26.7-26.7s12-26.7,26.7-26.7S69.5,22.6,69.5,37.4z" class="st4"/><linearGradient id="SVGID_2_" x1="11.347" x2="74.194" y1="-623.644" y2="-639.356" gradientTransform="matrix(1 0 0 -1 0 -594.1102)" gradientUnits="userSpaceOnUse"><stop offset="0" style="stop-color:#fff"/><stop offset="1" style="stop-color:#fff;stop-opacity:0"/></linearGradient><path d="M69.5,37.4c0,14.8-12,26.7-26.7,26.7s-26.7-12-26.7-26.7s12-26.7,26.7-26.7S69.5,22.6,69.5,37.4z" class="st5"/><path d="M37.5,77.4h69.4c5.9,0,10.7,4.8,10.7,10.7v13.4c0,5.9-4.8,10.7-10.7,10.7H37.5V77.4z" class="st1"/><path d="M37.5,77.4h69.4c5.9,0,10.7,4.8,10.7,10.7v13.4c0,5.9-4.8,10.7-10.7,10.7H37.5V77.4z" class="st2"/><linearGradient id="SVGID_3_" x1="37.5" x2="117.6" y1="29.09" y2="29.09" gradientTransform="matrix(1 0 0 -1 0 123.8898)" gradientUnits="userSpaceOnUse"><stop offset="0" style="stop-color:#fff"/><stop offset="1" style="stop-color:#fff;stop-opacity:0"/></linearGradient><path d="M37.5,77.4h69.4c5.9,0,10.7,4.8,10.7,10.7v13.4c0,5.9-4.8,10.7-10.7,10.7H37.5V77.4z" class="st6"/><path d="M5.4,77.4H48c19.2,0,34.7,15.5,34.7,34.7H40.1C21,112.2,5.4,96.6,5.4,77.4z" class="st4"/><linearGradient id="SVGID_4_" x1="7.184" x2="80.983" y1="-668.31" y2="-709.467" gradientTransform="matrix(1 0 0 -1 0 -594.1102)" gradientUnits="userSpaceOnUse"><stop offset="0" style="stop-color:#fff"/><stop offset="1" style="stop-color:#fff;stop-opacity:0"/></linearGradient><path d="M5.4,77.4H48c19.2,0,34.7,15.5,34.7,34.7H40.1C21,112.2,5.4,96.6,5.4,77.4z" class="st7"/><path d="M55.9,46V34.9h3V46c0,0.8-0.7,1.5-1.5,1.5C56.6,47.5,55.9,46.8,55.9,46z" class="st8"/><path d="M26.6,33.9l13.7-6.1c1.6-0.7,3.4-0.7,5,0L59,33.9c0.8,0.4,0.8,1.5,0,1.8l-13.7,6.1c-1.6,0.7-3.4,0.7-5,0 l-13.7-6.1C25.8,35.4,25.8,34.3,26.6,33.9L26.6,33.9z" class="st9"/></g></svg>